<mxfile host="Electron" agent="Mozilla/5.0 (X11; Linux x86_64) AppleWebKit/537.36 (KHTML, like Gecko) draw.io/27.0.9 Chrome/134.0.6998.205 Electron/35.7.0 Safari/537.36" version="27.0.9">
  <diagram name="Page-1" id="9g22xHhxj74CRA5_TwV7">
    <mxGraphModel dx="984" dy="573" grid="0" gridSize="10" guides="1" tooltips="1" connect="1" arrows="1" fold="1" page="1" pageScale="1" pageWidth="1100" pageHeight="850" math="0" shadow="0">
      <root>
        <mxCell id="0" />
        <mxCell id="1" parent="0" />
        <mxCell id="4S8SRtgr9Tt1ei3xFbQq-103" value="" style="html=1;verticalLabelPosition=bottom;align=center;labelBackgroundColor=#ffffff;verticalAlign=top;strokeWidth=2;strokeColor=#000000;shadow=0;dashed=0;shape=mxgraph.ios7.icons.note;pointerEvents=1" vertex="1" parent="1">
          <mxGeometry x="348" y="188" width="36.7" height="34.7" as="geometry" />
        </mxCell>
        <mxCell id="4S8SRtgr9Tt1ei3xFbQq-104" value="" style="sketch=0;outlineConnect=0;fontColor=#232F3E;gradientColor=none;fillColor=#000000;strokeColor=#000000;dashed=0;verticalLabelPosition=bottom;verticalAlign=top;align=center;html=1;fontSize=12;fontStyle=0;aspect=fixed;pointerEvents=1;shape=mxgraph.aws4.container_registry_image;" vertex="1" parent="1">
          <mxGeometry x="411" y="152" width="48" height="48" as="geometry" />
        </mxCell>
        <mxCell id="4S8SRtgr9Tt1ei3xFbQq-105" value="" style="html=1;verticalLabelPosition=bottom;align=center;labelBackgroundColor=#ffffff;verticalAlign=top;strokeWidth=2;strokeColor=#000000;shadow=0;dashed=0;shape=mxgraph.ios7.icons.video_conversation;" vertex="1" parent="1">
          <mxGeometry x="343.6" y="118" width="52.4" height="28" as="geometry" />
        </mxCell>
        <mxCell id="4S8SRtgr9Tt1ei3xFbQq-106" value="" style="sketch=0;aspect=fixed;pointerEvents=1;shadow=0;dashed=0;html=1;strokeColor=#000000;labelPosition=center;verticalLabelPosition=bottom;verticalAlign=top;align=center;fillColor=#000000;shape=mxgraph.mscae.general.video" vertex="1" parent="1">
          <mxGeometry x="396" y="218" width="49" height="50" as="geometry" />
        </mxCell>
        <mxCell id="4S8SRtgr9Tt1ei3xFbQq-155" value="" style="html=1;verticalLabelPosition=bottom;align=center;labelBackgroundColor=#ffffff;verticalAlign=top;strokeWidth=2;strokeColor=#000000;shadow=0;dashed=0;shape=mxgraph.ios7.icons.chat;" vertex="1" parent="1">
          <mxGeometry x="486" y="171.15" width="63" height="38" as="geometry" />
        </mxCell>
        <mxCell id="4S8SRtgr9Tt1ei3xFbQq-157" value="" style="verticalLabelPosition=bottom;html=1;verticalAlign=top;align=center;strokeColor=none;fillColor=#000000;shape=mxgraph.azure.user;" vertex="1" parent="1">
          <mxGeometry x="533" y="220.15" width="31.5" height="36" as="geometry" />
        </mxCell>
        <mxCell id="4S8SRtgr9Tt1ei3xFbQq-158" value="" style="verticalLabelPosition=bottom;html=1;verticalAlign=top;align=center;strokeColor=none;fillColor=#000000;shape=mxgraph.azure.user;" vertex="1" parent="1">
          <mxGeometry x="472" y="212.85" width="31.5" height="36" as="geometry" />
        </mxCell>
        <mxCell id="4S8SRtgr9Tt1ei3xFbQq-160" value="" style="editableCssRules=.*;html=1;shape=image;verticalLabelPosition=bottom;labelBackgroundColor=#ffffff;verticalAlign=top;aspect=fixed;imageAspect=0;image=data:image/svg+xml,PHN2ZyB4bWxucz0iaHR0cDovL3d3dy53My5vcmcvMjAwMC9zdmciIHhtbG5zOnY9Imh0dHBzOi8vdmVjdGEuaW8vbmFubyIgd2lkdGg9IjE4IiBoZWlnaHQ9IjIwIiB2aWV3Qm94PSIwIDAgMTggMjAiIHN0eWxlPSJjb2xvci1zY2hlbWU6IGxpZ2h0IGRhcms7Ij4mI3hhOwk8c3R5bGUgdHlwZT0idGV4dC9jc3MiPi5zdDAgeyBmaWxsOiBsaWdodC1kYXJrKHJnYigwLCAwLCAwKSwgcmdiKDE4LCAxOCwgMTgpKTsgfSAuc3QxIHsgZmlsbDogbGlnaHQtZGFyayhyZ2IoMCwgMCwgMCksIHJnYigxOCwgMTgsIDE4KSk7IH0gPC9zdHlsZT4mI3hhOwk8cGF0aCBjbGFzcz0ic3QwIiBkPSJNOCAwaDJ2MjBIOHpNNCA2aDJ2OEg0em04IDBoMnY4aC0yek0wIDNoMnYxNEgwem0xNiAwaDJ2MTRoLTJ6Ii8+JiN4YTsJPHBhdGggY2xhc3M9InN0MSIgZD0iTTggMGgydjEwSDh6TTQgNmgydjRINHptOCAwaDJ2NGgtMnpNMCAzaDJ2N0gwem0xNiAwaDJ2N2gtMnoiLz4mI3hhOzwvc3ZnPg==;" vertex="1" parent="1">
          <mxGeometry x="483" y="112" width="36" height="40" as="geometry" />
        </mxCell>
        <mxCell id="4S8SRtgr9Tt1ei3xFbQq-162" value="" style="sketch=0;outlineConnect=0;fontColor=#232F3E;gradientColor=none;fillColor=#232F3D;strokeColor=none;dashed=0;verticalLabelPosition=bottom;verticalAlign=top;align=center;html=1;fontSize=12;fontStyle=0;aspect=fixed;pointerEvents=1;shape=mxgraph.aws4.document;" vertex="1" parent="1">
          <mxGeometry x="424" y="82" width="35" height="47.89" as="geometry" />
        </mxCell>
      </root>
    </mxGraphModel>
  </diagram>
</mxfile>
